<svg id="canvas" height="100%" xmlns="http://www.w3.org/2000/svg" version="1.1" xmlns:xlink="http://www.w3.org/1999/xlink" viewBox="0 0 360 480"><rect width="360" height="480" fill="transparent"></rect><mask id="mask" mask-type="alpha" maskUnits="userSpaceOnUse"><rect transform="translate(0, 0)" width="360" height="480" fill="white"></rect></mask><svg><path transform="translate(0, 120) translate(30,30) rotate(90) translate(-30,-30)" d="M0 60C33.1371 60 60 33.1371 60 5.24537e-06L5.24537e-06 0L0 60Z" fill="#212460"></path></svg><svg><path transform="translate(0, 180) translate(30,30) rotate(90) translate(-30,-30)" d="M0 60C33.1371 60 60 33.1371 60 5.24537e-06L5.24537e-06 0L0 60Z" fill="#212460"></path></svg><svg><path transform="translate(0, 240) translate(30,30) rotate(270) translate(-30,-30)" d="M0 60C33.1371 60 60 33.1371 60 5.24537e-06L5.24537e-06 0L0 60Z" fill="#5761ff"></path></svg><svg><path transform="translate(0, 300) translate(30,30) rotate(0) translate(-30,-30)" d="M0 60C33.1371 60 60 33.1371 60 5.24537e-06L5.24537e-06 0L0 60Z" fill="#5761ff"></path></svg><svg><path transform="translate(0, 360) translate(30,30) rotate(270) translate(-30,-30)" d="M0 60C33.1371 60 60 33.1371 60 5.24537e-06L5.24537e-06 0L0 60Z" fill="#2c3180"></path></svg><svg><path transform="translate(60, 0) translate(30,30) rotate(0) translate(-30,-30)" d="M0 60C33.1371 60 60 33.1371 60 5.24537e-06L5.24537e-06 0L0 60Z" fill="#161840"></path></svg><svg><path transform="translate(60, 60) translate(30,30) rotate(270) translate(-30,-30)" d="M0 60C33.1371 60 60 33.1371 60 5.24537e-06L5.24537e-06 0L0 60Z" fill="#212460"></path></svg><svg><path transform="translate(60, 180) translate(30,30) rotate(90) translate(-30,-30)" d="M0 60C33.1371 60 60 33.1371 60 5.24537e-06L5.24537e-06 0L0 60Z" fill="#212460"></path></svg><svg><path transform="translate(60, 240) translate(30,30) rotate(90) translate(-30,-30)" d="M0 60C33.1371 60 60 33.1371 60 5.24537e-06L5.24537e-06 0L0 60Z" fill="#5761ff"></path></svg><svg><path transform="translate(60, 360) translate(30,30) rotate(90) translate(-30,-30)" d="M0 60C33.1371 60 60 33.1371 60 5.24537e-06L5.24537e-06 0L0 60Z" fill="#4149bf"></path></svg><svg><path transform="translate(60, 420) translate(30,30) rotate(0) translate(-30,-30)" d="M0 60C33.1371 60 60 33.1371 60 5.24537e-06L5.24537e-06 0L0 60Z" fill="#363d9f"></path></svg><svg><path transform="translate(120, 0) translate(30,30) rotate(180) translate(-30,-30)" d="M0 60C33.1371 60 60 33.1371 60 5.24537e-06L5.24537e-06 0L0 60Z" fill="#2c3180"></path></svg><svg><path transform="translate(120, 60) translate(30,30) rotate(180) translate(-30,-30)" d="M0 60C33.1371 60 60 33.1371 60 5.24537e-06L5.24537e-06 0L0 60Z" fill="#4c55df"></path></svg><svg><path transform="translate(120, 120) translate(30,30) rotate(90) translate(-30,-30)" d="M0 60C33.1371 60 60 33.1371 60 5.24537e-06L5.24537e-06 0L0 60Z" fill="#363d9f"></path></svg><svg><path transform="translate(120, 360) translate(30,30) rotate(180) translate(-30,-30)" d="M0 60C33.1371 60 60 33.1371 60 5.24537e-06L5.24537e-06 0L0 60Z" fill="#4149bf"></path></svg><svg><path transform="translate(120, 420) translate(30,30) rotate(270) translate(-30,-30)" d="M0 60C33.1371 60 60 33.1371 60 5.24537e-06L5.24537e-06 0L0 60Z" fill="#4c55df"></path></svg><svg><path transform="translate(180, 0) translate(30,30) rotate(0) translate(-30,-30)" d="M0 60C33.1371 60 60 33.1371 60 5.24537e-06L5.24537e-06 0L0 60Z" fill="#2c3180"></path></svg><svg><path transform="translate(180, 60) translate(30,30) rotate(0) translate(-30,-30)" d="M0 60C33.1371 60 60 33.1371 60 5.24537e-06L5.24537e-06 0L0 60Z" fill="#363d9f"></path></svg><svg><path transform="translate(180, 120) translate(30,30) rotate(0) translate(-30,-30)" d="M0 60C33.1371 60 60 33.1371 60 5.24537e-06L5.24537e-06 0L0 60Z" fill="#2c3180"></path></svg><svg><path transform="translate(180, 180) translate(30,30) rotate(270) translate(-30,-30)" d="M0 60C33.1371 60 60 33.1371 60 5.24537e-06L5.24537e-06 0L0 60Z" fill="#2c3180"></path></svg><svg><path transform="translate(180, 240) translate(30,30) rotate(180) translate(-30,-30)" d="M0 60C33.1371 60 60 33.1371 60 5.24537e-06L5.24537e-06 0L0 60Z" fill="#363d9f"></path></svg><svg><path transform="translate(180, 300) translate(30,30) rotate(90) translate(-30,-30)" d="M0 60C33.1371 60 60 33.1371 60 5.24537e-06L5.24537e-06 0L0 60Z" fill="#2c3180"></path></svg><svg><path transform="translate(180, 360) translate(30,30) rotate(90) translate(-30,-30)" d="M0 60C33.1371 60 60 33.1371 60 5.24537e-06L5.24537e-06 0L0 60Z" fill="#4c55df"></path></svg><svg><path transform="translate(180, 420) translate(30,30) rotate(0) translate(-30,-30)" d="M0 60C33.1371 60 60 33.1371 60 5.24537e-06L5.24537e-06 0L0 60Z" fill="#4149bf"></path></svg><svg><path transform="translate(240, 60) translate(30,30) rotate(180) translate(-30,-30)" d="M0 60C33.1371 60 60 33.1371 60 5.24537e-06L5.24537e-06 0L0 60Z" fill="#212460"></path></svg><svg><path transform="translate(240, 120) translate(30,30) rotate(90) translate(-30,-30)" d="M0 60C33.1371 60 60 33.1371 60 5.24537e-06L5.24537e-06 0L0 60Z" fill="#212460"></path></svg><svg><path transform="translate(240, 300) translate(30,30) rotate(180) translate(-30,-30)" d="M0 60C33.1371 60 60 33.1371 60 5.24537e-06L5.24537e-06 0L0 60Z" fill="#2c3180"></path></svg><svg><path transform="translate(240, 360) translate(30,30) rotate(90) translate(-30,-30)" d="M0 60C33.1371 60 60 33.1371 60 5.24537e-06L5.24537e-06 0L0 60Z" fill="#5761ff"></path></svg><svg><path transform="translate(300, 0) translate(30,30) rotate(0) translate(-30,-30)" d="M0 60C33.1371 60 60 33.1371 60 5.24537e-06L5.24537e-06 0L0 60Z" fill="#4149bf"></path></svg><svg><path transform="translate(300, 60) translate(30,30) rotate(270) translate(-30,-30)" d="M0 60C33.1371 60 60 33.1371 60 5.24537e-06L5.24537e-06 0L0 60Z" fill="#5761ff"></path></svg><svg><path transform="translate(300, 120) translate(30,30) rotate(90) translate(-30,-30)" d="M0 60C33.1371 60 60 33.1371 60 5.24537e-06L5.24537e-06 0L0 60Z" fill="#2c3180"></path></svg><svg><path transform="translate(300, 180) translate(30,30) rotate(90) translate(-30,-30)" d="M0 60C33.1371 60 60 33.1371 60 5.24537e-06L5.24537e-06 0L0 60Z" fill="#4c55df"></path></svg><svg><path transform="translate(300, 240) translate(30,30) rotate(0) translate(-30,-30)" d="M0 60C33.1371 60 60 33.1371 60 5.24537e-06L5.24537e-06 0L0 60Z" fill="#2c3180"></path></svg><svg><path transform="translate(300, 300) translate(30,30) rotate(270) translate(-30,-30)" d="M0 60C33.1371 60 60 33.1371 60 5.24537e-06L5.24537e-06 0L0 60Z" fill="#212460"></path></svg><svg><path transform="translate(300, 420) translate(30,30) rotate(270) translate(-30,-30)" d="M0 60C33.1371 60 60 33.1371 60 5.24537e-06L5.24537e-06 0L0 60Z" fill="#2c3180"></path></svg></svg>